<?xml version="1.0" encoding="UTF-8" standalone="no"?>
<svg
   viewBox="0 0 640 512"
   version="1.1"
   id="svg1"
   sodipodi:docname="gamepad-modern-white.svg"
   inkscape:version="1.4.3 (0d15f75, 2025-12-25)"
   xmlns:inkscape="http://www.inkscape.org/namespaces/inkscape"
   xmlns:sodipodi="http://sodipodi.sourceforge.net/DTD/sodipodi-0.dtd"
   xmlns="http://www.w3.org/2000/svg"
   xmlns:svg="http://www.w3.org/2000/svg">
  <defs
     id="defs1" />
  <sodipodi:namedview
     id="namedview1"
     pagecolor="#ffffff"
     bordercolor="#000000"
     borderopacity="0.25"
     inkscape:showpageshadow="2"
     inkscape:pageopacity="0.0"
     inkscape:pagecheckerboard="0"
     inkscape:deskcolor="#d1d1d1"
     inkscape:zoom="0.96679688"
     inkscape:cx="320.12929"
     inkscape:cy="256"
     inkscape:window-width="1366"
     inkscape:window-height="697"
     inkscape:window-x="-8"
     inkscape:window-y="-8"
     inkscape:window-maximized="1"
     inkscape:current-layer="svg1" />
  <!--! Font Awesome Pro 6.1.1 by @fontawesome - https://fontawesome.com License - https://fontawesome.com/license (Commercial License) Copyright 2022 Fonticons, Inc. -->
  <path
     d="M640 384.2c0-5.257-.4576-10.6-1.406-15.98l-33.38-211.6C591.4 77.96 522 32 319.1 32C119 32 48.71 77.46 34.78 156.6l-33.38 211.6c-.9487 5.383-1.406 10.72-1.406 15.98c0 51.89 44.58 95.81 101.5 95.81c49.69 0 93.78-30.06 109.5-74.64l7.5-21.36h203l7.5 21.36c15.72 44.58 59.81 74.64 109.5 74.64C595.4 479.1 640 436.1 640 384.2zM247.1 248l-31.96-.0098L215.1 280c0 13.2-10.78 24-23.98 24c-13.2 0-24.02-10.8-24.02-24l.0367-32.01L135.1 248c-13.2 0-23.98-10.8-23.98-24c0-13.2 10.77-24 23.98-24l32.04-.011L167.1 168c0-13.2 10.82-24 24.02-24c13.2 0 23.98 10.8 23.98 24l.0368 31.99L247.1 200c13.2 0 24.02 10.8 24.02 24C271.1 237.2 261.2 248 247.1 248zM432 311.1c-22.09 0-40-17.92-40-40c0-22.08 17.91-40 40-40s40 17.92 40 40C472 294.1 454.1 311.1 432 311.1zM496 215.1c-22.09 0-40-17.92-40-40c0-22.08 17.91-40 40-40s40 17.92 40 40C536 198.1 518.1 215.1 496 215.1z"
     id="path1" />
  <path
     style="fill:#ffffff;stroke-width:1.03434"
     d="M 83.264646,477.84857 C 61.126796,473.75796 41.811009,463.43402 26.873055,447.70823 14.856182,435.05759 6.9489409,420.76461 3.1113986,404.75709 -0.99211361,387.64013 -0.76570301,385.56304 18.592084,262.73688 28.248842,201.46425 37.147747,147.76965 38.36743,143.41555 43.960813,123.44791 53.182247,107.61825 67.771064,92.940805 108.55859,51.905497 188.84668,32.634536 319.20189,32.591708 495.07833,32.533925 582.12682,67.1521 602.05744,145.08007 c 1.12464,4.39729 9.98899,58.26589 19.69858,119.708 17.16092,108.59414 17.63913,112.04503 17.12878,123.60789 -0.61686,13.9761 -3.06342,23.52546 -9.20022,35.91002 -12.16734,24.55473 -37.33341,44.37434 -65.45024,51.54555 -50.68294,12.92669 -106.31342,-12.41118 -129.56163,-59.01113 -1.70288,-3.41333 -5.30467,-12.37559 -8.00398,-19.91613 l -4.90784,-13.71008 -101.84708,0.26361 -101.84708,0.26361 -5.42276,14.99798 c -8.03226,22.21523 -13.17342,30.97475 -26.16166,44.57431 -15.70767,16.44698 -34.02446,26.9867 -56.67221,32.60991 -13.32877,3.3094 -34.348402,4.1787 -46.545454,1.92496 z M 445.91185,309.24689 c 7.03205,-2.45481 14.88765,-8.38102 18.92253,-14.27501 5.61355,-8.20004 7.17063,-13.36735 7.22413,-23.9739 0.042,-8.32177 -0.29638,-10.04186 -3.19009,-16.2181 -4.24058,-9.05093 -10.41326,-15.60623 -18.39566,-19.53596 -20.63826,-10.16018 -44.93362,-2.11315 -54.89885,18.18342 -2.80493,5.71293 -3.04058,7.07462 -3.04058,17.57064 0,10.12163 0.29806,12.00585 2.69971,17.06667 5.31678,11.20361 15.21605,19.33426 27.29625,22.41942 6.14326,1.56893 16.98788,0.99513 23.38256,-1.23718 z m -243.49436,-7.57568 c 4.71825,-2.40707 9.25339,-7.32213 11.33117,-12.28041 0.99552,-2.37563 1.39477,-8.66743 1.39477,-21.9798 v -18.6514 h 17.12581 c 19.8287,0 24.61248,-0.92874 30.42914,-5.90758 5.95017,-5.09313 8.54955,-10.67419 8.62331,-18.51495 0.11103,-11.80259 -7.65104,-21.67354 -18.94834,-24.09637 -2.8969,-0.62127 -12.43107,-1.12959 -21.18703,-1.12959 h -15.91995 l -0.32005,-19.99068 c -0.31899,-19.92433 -0.32967,-20.00519 -3.21576,-24.36236 -8.4474,-12.75312 -25.44542,-14.90434 -36.83736,-4.662 -7.38395,6.63881 -8.36391,10.33146 -8.36391,31.5168 v 17.30094 l -18.87676,0.38269 c -16.8959,0.34253 -19.31834,0.61637 -23.0847,2.6096 -9.56077,5.05974 -14.6446,14.33029 -13.57654,24.75731 0.6666,6.5078 2.66194,10.52768 7.61179,15.3349 5.72102,5.55618 11.25475,6.76129 31.04728,6.76129 h 16.87893 v 17.39958 c 0,20.30469 1.06522,24.796 7.37823,31.10901 2.25832,2.25832 6.06025,4.82647 8.44875,5.707 5.61491,2.06998 14.59142,1.48651 20.06122,-1.30398 z m 302.54978,-87.1736 c 16.32335,-3.46346 27.9556,-15.77312 30.94562,-32.74775 3.0415,-17.26685 -6.3218,-35.34582 -22.38393,-43.21965 -5.69877,-2.7936 -7.07543,-3.03122 -17.56128,-3.03122 -10.48586,0 -11.86252,0.23762 -17.56128,3.03122 -20.16934,9.88722 -28.58335,34.75405 -18.49545,54.66157 8.52482,16.82292 26.38353,25.26779 45.05632,21.30583 z"
     id="path2" />
</svg>
