<?xml version="1.0" encoding="UTF-8" standalone="no"?>
<svg
   viewBox="0 0 640 512"
   version="1.1"
   id="svg1"
   sodipodi:docname="gears-white.svg"
   inkscape:version="1.4.3 (0d15f75, 2025-12-25)"
   xmlns:inkscape="http://www.inkscape.org/namespaces/inkscape"
   xmlns:sodipodi="http://sodipodi.sourceforge.net/DTD/sodipodi-0.dtd"
   xmlns="http://www.w3.org/2000/svg"
   xmlns:svg="http://www.w3.org/2000/svg">
  <defs
     id="defs1" />
  <sodipodi:namedview
     id="namedview1"
     pagecolor="#ffffff"
     bordercolor="#000000"
     borderopacity="0.25"
     inkscape:showpageshadow="2"
     inkscape:pageopacity="0.0"
     inkscape:pagecheckerboard="0"
     inkscape:deskcolor="#d1d1d1"
     inkscape:zoom="0.96679688"
     inkscape:cx="320.12929"
     inkscape:cy="256"
     inkscape:window-width="1366"
     inkscape:window-height="697"
     inkscape:window-x="-8"
     inkscape:window-y="-8"
     inkscape:window-maximized="1"
     inkscape:current-layer="svg1" />
  <!--! Font Awesome Pro 6.1.1 by @fontawesome - https://fontawesome.com License - https://fontawesome.com/license (Commercial License) Copyright 2022 Fonticons, Inc. -->
  <path
     d="M286.3 155.1C287.4 161.9 288 168.9 288 175.1C288 183.1 287.4 190.1 286.3 196.9L308.5 216.7C315.5 223 318.4 232.1 314.7 241.7C312.4 246.1 309.9 252.2 307.1 257.2L304 262.6C300.1 267.6 297.7 272.4 294.2 277.1C288.5 284.7 278.5 287.2 269.5 284.2L241.2 274.9C230.5 283.8 218.3 290.9 205 295.9L198.1 324.9C197 334.2 189.8 341.6 180.4 342.8C173.7 343.6 166.9 344 160 344C153.1 344 146.3 343.6 139.6 342.8C130.2 341.6 122.1 334.2 121 324.9L114.1 295.9C101.7 290.9 89.5 283.8 78.75 274.9L50.53 284.2C41.54 287.2 31.52 284.7 25.82 277.1C22.28 272.4 18.98 267.5 15.94 262.5L12.92 257.2C10.13 252.2 7.592 247 5.324 241.7C1.62 232.1 4.458 223 11.52 216.7L33.7 196.9C32.58 190.1 31.1 183.1 31.1 175.1C31.1 168.9 32.58 161.9 33.7 155.1L11.52 135.3C4.458 128.1 1.62 119 5.324 110.3C7.592 104.1 10.13 99.79 12.91 94.76L15.95 89.51C18.98 84.46 22.28 79.58 25.82 74.89C31.52 67.34 41.54 64.83 50.53 67.79L78.75 77.09C89.5 68.25 101.7 61.13 114.1 56.15L121 27.08C122.1 17.8 130.2 10.37 139.6 9.231C146.3 8.418 153.1 8 160 8C166.9 8 173.7 8.418 180.4 9.23C189.8 10.37 197 17.8 198.1 27.08L205 56.15C218.3 61.13 230.5 68.25 241.2 77.09L269.5 67.79C278.5 64.83 288.5 67.34 294.2 74.89C297.7 79.56 300.1 84.42 304 89.44L307.1 94.83C309.9 99.84 312.4 105 314.7 110.3C318.4 119 315.5 128.1 308.5 135.3L286.3 155.1zM160 127.1C133.5 127.1 112 149.5 112 175.1C112 202.5 133.5 223.1 160 223.1C186.5 223.1 208 202.5 208 175.1C208 149.5 186.5 127.1 160 127.1zM484.9 478.3C478.1 479.4 471.1 480 464 480C456.9 480 449.9 479.4 443.1 478.3L423.3 500.5C416.1 507.5 407 510.4 398.3 506.7C393 504.4 387.8 501.9 382.8 499.1L377.4 496C372.4 492.1 367.6 489.7 362.9 486.2C355.3 480.5 352.8 470.5 355.8 461.5L365.1 433.2C356.2 422.5 349.1 410.3 344.1 397L315.1 390.1C305.8 389 298.4 381.8 297.2 372.4C296.4 365.7 296 358.9 296 352C296 345.1 296.4 338.3 297.2 331.6C298.4 322.2 305.8 314.1 315.1 313L344.1 306.1C349.1 293.7 356.2 281.5 365.1 270.8L355.8 242.5C352.8 233.5 355.3 223.5 362.9 217.8C367.6 214.3 372.5 210.1 377.5 207.9L382.8 204.9C387.8 202.1 392.1 199.6 398.3 197.3C407 193.6 416.1 196.5 423.3 203.5L443.1 225.7C449.9 224.6 456.9 224 464 224C471.1 224 478.1 224.6 484.9 225.7L504.7 203.5C511 196.5 520.1 193.6 529.7 197.3C535 199.6 540.2 202.1 545.2 204.9L550.5 207.9C555.5 210.1 560.4 214.3 565.1 217.8C572.7 223.5 575.2 233.5 572.2 242.5L562.9 270.8C571.8 281.5 578.9 293.7 583.9 306.1L612.9 313C622.2 314.1 629.6 322.2 630.8 331.6C631.6 338.3 632 345.1 632 352C632 358.9 631.6 365.7 630.8 372.4C629.6 381.8 622.2 389 612.9 390.1L583.9 397C578.9 410.3 571.8 422.5 562.9 433.2L572.2 461.5C575.2 470.5 572.7 480.5 565.1 486.2C560.4 489.7 555.6 492.1 550.6 496L545.2 499.1C540.2 501.9 534.1 504.4 529.7 506.7C520.1 510.4 511 507.5 504.7 500.5L484.9 478.3zM512 352C512 325.5 490.5 304 464 304C437.5 304 416 325.5 416 352C416 378.5 437.5 400 464 400C490.5 400 512 378.5 512 352z"
     id="path1" />
  <path
     style="fill:#ffffff;stroke-width:1.03434"
     d="m 146.65516,342.85436 c -11.16396,-0.8488 -17.40481,-3.528 -21.44956,-9.20833 -1.26782,-1.78049 -3.89226,-10.22479 -6.37984,-20.52755 l -4.22602,-17.50277 -8.32181,-4.03412 c -7.881258,-3.82055 -16.987268,-9.37494 -24.183385,-14.75113 l -3.238788,-2.4197 -16.569035,5.27544 c -9.112969,2.90147 -17.662787,5.27282 -18.999596,5.26964 C 38.720043,284.945 33.045113,282.78242 29.564633,279.72652 21.921187,273.01549 5.6336231,244.36189 4.451184,235.54615 3.2529757,226.61283 7.3895066,220.88403 28.277541,202.54829 l 6.039157,-5.30124 -1.272977,-7.89113 c -1.215264,-7.53337 -0.85108,-25.27438 0.651778,-31.75097 C 34.261553,155.16552 33.1226,153.80459 22.593434,144.33916 0.6587303,124.62045 -0.23155671,119.92097 13.33596,95.47251 24.975931,74.49746 32.332942,67.391631 42.408081,67.392962 c 2.705288,3.58e-4 11.294866,2.108711 20.510674,5.034443 10.714383,3.401484 16.294524,4.716986 17.208053,4.056747 8.56486,-6.190116 19.191181,-12.723816 26.077722,-16.034149 l 8.45909,-4.066243 3.93284,-16.716133 c 4.53123,-19.259462 6.57639,-23.199578 14.25053,-27.454441 l 5.23786,-2.9040951 h 20.1697 c 11.09333,0 21.9251,0.3720491 24.07059,0.8267761 4.46581,0.946504 10.45173,5.785566 12.81866,10.362693 0.88874,1.718646 3.3491,10.494903 5.46747,19.502794 2.11837,9.007891 4.0438,16.519593 4.27874,16.692672 0.23494,0.173078 3.59009,1.629073 7.45591,3.235545 3.8658,1.606473 11.86915,6.117694 17.7852,10.024937 5.91606,3.907243 11.38584,7.104078 12.15506,7.104078 0.76923,0 6.96225,-1.877776 13.76227,-4.172836 18.10644,-6.111067 20.44968,-6.522603 26.73503,-4.695403 3.34489,0.972385 6.48803,2.804138 8.48962,4.947555 9.80245,10.497024 23.27218,35.134528 23.99876,43.896198 0.72425,8.73349 -2.10274,13.14723 -16.94921,26.46258 -12.2267,10.96577 -12.70648,11.55049 -12.01382,14.64141 0.94871,4.23351 0.93096,31.24275 -0.0233,35.51729 -0.72411,3.24344 -0.38747,3.65585 12.10584,14.8315 14.90955,13.33702 17.60897,17.51702 16.86401,26.11365 -0.61829,7.13481 -6.26803,19.06126 -15.83473,33.42669 -6.77984,10.18067 -8.34045,11.87897 -13.09141,14.24647 -2.96668,1.47836 -6.95432,2.68793 -8.86142,2.68793 -1.9071,0 -10.82476,-2.39883 -19.817,-5.33074 l -16.34954,-5.33074 -7.06399,5.07215 c -3.8852,2.78969 -12.19071,7.66538 -18.45669,10.83487 l -11.39269,5.76273 -3.99874,16.99283 c -6.07935,25.83447 -8.55787,28.34662 -29.57339,29.97453 -6.62421,0.51312 -12.50948,0.87627 -13.07837,0.80699 -0.56889,-0.0693 -5.55588,-0.46972 -11.08221,-0.88988 z M 176.2064,220.69059 c 17.47664,-5.8362 28.96709,-19.89326 31.62972,-38.69482 3.39868,-23.99895 -12.28031,-47.61505 -35.6541,-53.70314 -17.00857,-4.43017 -35.38795,0.9793 -47.39638,13.94983 -8.8124,9.51845 -13.00279,20.15236 -13.05126,33.12002 -0.0514,13.75843 5.00747,25.61024 14.94223,35.00611 13.05443,12.34634 31.78123,16.249 49.52979,10.322 z"
     id="path2" />
  <path
     style="fill:#ffffff;stroke-width:1.03434"
     d="m 391.49899,502.83163 c -14.04411,-6.74603 -30.56312,-18.20243 -33.32066,-23.1088 -4.30081,-7.65226 -4.12237,-10.67147 1.67561,-28.35183 2.89811,-8.83748 5.26929,-16.76028 5.26929,-17.60619 0,-0.84593 -2.20582,-4.5064 -4.90182,-8.13439 -2.69599,-3.62798 -7.47168,-11.69803 -10.61264,-17.93345 l -5.71082,-11.3371 -17.05605,-4.03628 c -19.42097,-4.59594 -23.44067,-6.69117 -27.10452,-14.12794 -2.23462,-4.53578 -2.36364,-5.98336 -2.36364,-26.51888 0,-20.37445 0.14052,-21.98381 2.26633,-25.95652 2.40999,-4.50377 8.25711,-10.22326 11.37076,-11.12256 1.03293,-0.29835 8.1617,-2.00714 15.8417,-3.79733 7.68,-1.79019 14.74901,-3.4711 15.70891,-3.73534 0.95991,-0.26425 3.60662,-4.29834 5.88159,-8.96465 3.37714,-6.92704 9.80734,-17.34802 16.1437,-26.16299 0.7129,-0.99177 -0.49865,-5.95962 -4.07054,-16.69088 -7.90293,-23.74323 -6.88014,-29.63093 6.94806,-39.99664 9.0182,-6.76011 30.02477,-17.72698 35.83579,-18.70874 8.84112,-1.4937 15.00597,2.33029 28.98217,17.9774 l 9.60461,10.75286 h 22.11429 22.11428 l 10.662,-11.77766 c 12.03375,-13.29294 15.59038,-16.07012 21.76303,-16.99362 5.69766,-0.85243 11.77505,1.22817 26.06442,8.92319 12.95955,6.97889 22.42007,13.9948 25.33543,18.78872 4.11244,6.76238 3.83482,10.90121 -1.95016,29.07274 -2.92038,9.17339 -5.30923,16.99969 -5.30853,17.39179 6.8e-4,0.3921 2.62503,4.34847 5.83187,8.79192 3.20684,4.44346 7.91337,12.36111 10.45896,17.59479 l 4.62834,9.51577 16.17538,3.81302 c 18.04401,4.25351 22.73202,6.33233 26.45215,11.72983 3.73971,5.42589 4.80337,11.99136 4.81255,29.70536 0.009,17.62401 -0.50616,21.85066 -3.35465,27.51707 -2.97577,5.91962 -8.05173,8.58842 -23.11244,12.15187 -23.06225,5.45666 -20.26045,3.80449 -25.76694,15.19427 -2.66304,5.50832 -7.44751,13.7336 -10.63214,18.27841 l -5.79024,8.2633 5.32092,16.31944 c 2.92651,8.97569 5.32092,17.87979 5.32092,19.78689 0,1.90711 -1.21838,5.91246 -2.70753,8.90077 -2.35837,4.73265 -4.10026,6.36773 -13.50761,12.67936 -15.8488,10.63339 -28.26659,16.42684 -35.20958,16.42684 -8.37325,0 -12.13788,-2.54491 -24.91889,-16.84535 l -11.4377,-12.79742 -5.49924,0.78224 c -7.0422,1.00171 -24.60022,1.0082 -31.59445,0.0117 l -5.40833,-0.77057 -11.30175,12.60133 c -17.01636,18.97303 -22.74304,20.76583 -39.94219,12.50429 z m 82.50938,-103.54329 c 14.64336,-3.10299 27.71559,-13.49592 34.17012,-27.16655 3.16673,-6.70711 3.30434,-7.53699 3.30434,-19.92785 0,-12.79745 -0.0394,-13.01179 -3.86307,-21.0197 -18.91562,-39.61495 -76.83836,-35.49293 -89.78211,6.38926 -9.61017,31.09567 12.9543,62.00708 46.06538,63.1057 1.70667,0.0566 6.25406,-0.56476 10.10534,-1.38086 z"
     id="path3" />
</svg>
