<?xml version="1.0" encoding="UTF-8" standalone="no"?>
<svg
   viewBox="0 0 512 512"
   version="1.1"
   id="svg1"
   sodipodi:docname="magnifying-glass-white.svg"
   inkscape:version="1.4.3 (0d15f75, 2025-12-25)"
   xmlns:inkscape="http://www.inkscape.org/namespaces/inkscape"
   xmlns:sodipodi="http://sodipodi.sourceforge.net/DTD/sodipodi-0.dtd"
   xmlns="http://www.w3.org/2000/svg"
   xmlns:svg="http://www.w3.org/2000/svg">
  <defs
     id="defs1" />
  <sodipodi:namedview
     id="namedview1"
     pagecolor="#ffffff"
     bordercolor="#000000"
     borderopacity="0.25"
     inkscape:showpageshadow="2"
     inkscape:pageopacity="0.0"
     inkscape:pagecheckerboard="0"
     inkscape:deskcolor="#d1d1d1"
     inkscape:zoom="0.96679688"
     inkscape:cx="256"
     inkscape:cy="256"
     inkscape:window-width="1366"
     inkscape:window-height="697"
     inkscape:window-x="-8"
     inkscape:window-y="-8"
     inkscape:window-maximized="1"
     inkscape:current-layer="svg1" />
  <!--! Font Awesome Pro 6.1.1 by @fontawesome - https://fontawesome.com License - https://fontawesome.com/license (Commercial License) Copyright 2022 Fonticons, Inc. -->
  <path
     d="M500.3 443.7l-119.7-119.7c27.22-40.41 40.65-90.9 33.46-144.7C401.8 87.79 326.8 13.32 235.2 1.723C99.01-15.51-15.51 99.01 1.724 235.2c11.6 91.64 86.08 166.7 177.6 178.9c53.8 7.189 104.3-6.236 144.7-33.46l119.7 119.7c15.62 15.62 40.95 15.62 56.57 0C515.9 484.7 515.9 459.3 500.3 443.7zM79.1 208c0-70.58 57.42-128 128-128s128 57.42 128 128c0 70.58-57.42 128-128 128S79.1 278.6 79.1 208z"
     id="path1" />
  <path
     style="fill:#ffffff;stroke-width:1.03434"
     d="m 461.83434,510.09996 c -10.74363,-3.58178 -12.99435,-5.60933 -75.62404,-68.12513 l -62.17757,-62.06452 -6.60627,4.0808 c -10.91013,6.73938 -15.66649,9.28036 -25.3242,13.52893 -47.33313,20.82245 -100.53058,23.45722 -149.46758,7.40285 C 130.67792,401.00032 106.76448,389.40851 95.775622,382.2084 51.589058,353.25651 19.447747,308.479 6.7739358,258.21613 2.0014653,239.28906 0.74439473,226.54599 1.3005049,202.73131 1.8506158,179.17355 3.4704149,168.24927 9.3458329,148.47187 25.282723,94.826267 64.943354,47.718845 115.42913,22.470073 c 56.6945,-28.3538617 124.51496,-29.0771419 180.91026,-1.929342 86.04333,41.419891 133.13759,134.137119 115.2407,226.881089 -4.25041,22.0261 -14.14035,47.76512 -25.71828,66.93298 -2.87288,4.7562 -5.22343,9.03966 -5.22343,9.5188 0,0.47912 27.8647,28.8072 61.92155,62.9513 71.62516,71.80861 67.88855,67.11076 67.88855,85.35288 0,9.92582 -0.25739,11.36868 -2.9905,16.7636 -6.67355,13.17304 -19.07745,21.37057 -33.47089,22.12038 -5.01696,0.26136 -9.56309,-0.0984 -12.15275,-0.9618 z M 231.4366,334.09864 c 45.23124,-8.67886 83.36534,-42.1324 97.56724,-85.59189 4.38002,-13.40338 6.12364,-24.93271 6.12202,-40.48062 -0.004,-35.59287 -12.37658,-65.7189 -37.23495,-90.6614 -24.74732,-24.831087 -55.19742,-37.444685 -90.50505,-37.490671 -36.47985,-0.04751 -67.20023,12.957826 -92.58118,39.193841 -33.916975,35.0596 -44.947872,85.19099 -28.929289,131.47304 15.771409,45.56789 57.251639,79.0118 105.479959,85.04442 10.19371,1.27508 29.40071,0.56263 40.08125,-1.48672 z"
     id="path2" />
</svg>
