<?xml version="1.0" encoding="UTF-8" standalone="no"?>
<svg
   viewBox="0 0 320 512"
   version="1.1"
   id="svg1"
   sodipodi:docname="sort-white.svg"
   inkscape:version="1.4.3 (0d15f75, 2025-12-25)"
   xmlns:inkscape="http://www.inkscape.org/namespaces/inkscape"
   xmlns:sodipodi="http://sodipodi.sourceforge.net/DTD/sodipodi-0.dtd"
   xmlns="http://www.w3.org/2000/svg"
   xmlns:svg="http://www.w3.org/2000/svg">
  <defs
     id="defs1" />
  <sodipodi:namedview
     id="namedview1"
     pagecolor="#ffffff"
     bordercolor="#000000"
     borderopacity="0.25"
     inkscape:showpageshadow="2"
     inkscape:pageopacity="0.0"
     inkscape:pagecheckerboard="0"
     inkscape:deskcolor="#d1d1d1"
     inkscape:zoom="0.96679688"
     inkscape:cx="159.80606"
     inkscape:cy="256"
     inkscape:window-width="1366"
     inkscape:window-height="697"
     inkscape:window-x="-8"
     inkscape:window-y="-8"
     inkscape:window-maximized="1"
     inkscape:current-layer="svg1" />
  <!--! Font Awesome Pro 6.1.1 by @fontawesome - https://fontawesome.com License - https://fontawesome.com/license (Commercial License) Copyright 2022 Fonticons, Inc. -->
  <path
     d="M27.66 224h264.7c24.6 0 36.89-29.78 19.54-47.12l-132.3-136.8c-5.406-5.406-12.47-8.107-19.53-8.107c-7.055 0-14.09 2.701-19.45 8.107L8.119 176.9C-9.229 194.2 3.055 224 27.66 224zM292.3 288H27.66c-24.6 0-36.89 29.77-19.54 47.12l132.5 136.8C145.9 477.3 152.1 480 160 480c7.053 0 14.12-2.703 19.53-8.109l132.3-136.8C329.2 317.8 316.9 288 292.3 288z"
     id="path1" />
  <path
     style="fill:#ffffff;stroke-width:1.03434"
     d="m 153.08283,478.74814 c -0.85334,-0.33862 -3.13585,-1.34431 -5.07227,-2.23487 C 144.21193,474.76627 8.9201419,335.9739 4.3639111,329.14985 0.68340384,323.63742 -0.07647033,312.06962 2.8145131,305.56289 5.7135469,299.03804 9.8224335,294.58601 15.908472,291.37541 l 5.295568,-2.79359 h 138.60202 138.60202 l 4.90149,2.4139 c 13.82059,6.80643 19.827,23.38304 13.18801,36.39654 -1.2423,2.43512 -30.66857,33.68297 -71.13044,75.53365 -52.23291,54.02574 -70.14324,71.93003 -73.66613,73.64131 -4.58238,2.22593 -15.33163,3.48509 -18.61818,2.18092 z"
     id="path2" />
  <path
     style="fill:#ffffff;stroke-width:1.03434"
     d="M 22.755556,222.97298 C 14.002095,221.17595 6.8256724,215.336 2.965815,206.86869 0.3431364,201.11536 0.40486695,190.72114 3.0947139,185.16466 4.4256416,182.41533 29.796403,155.47603 74.7565,109.07243 129.25582,52.82334 145.35331,36.7875 148.94545,35.167677 c 6.4875,-2.925454 16.58873,-2.813981 22.80935,0.251714 3.55045,1.749768 21.48328,19.646564 72.92121,72.774709 38.93979,40.21932 69.43104,72.54533 71.05147,75.32687 1.56123,2.6799 3.12753,6.9806 3.48068,9.5571 1.44289,10.52703 -5.56543,22.83728 -15.89859,27.92621 l -4.90149,2.4139 -136.01616,0.149 c -74.80889,0.082 -137.645253,-0.18544 -139.636364,-0.5942 z"
     id="path3" />
</svg>
