<?xml version="1.0" encoding="UTF-8" standalone="no"?>
<svg
   viewBox="0 0 448 512"
   version="1.1"
   id="svg1"
   sodipodi:docname="square-xmark-red.svg"
   inkscape:version="1.4.3 (0d15f75, 2025-12-25)"
   xmlns:inkscape="http://www.inkscape.org/namespaces/inkscape"
   xmlns:sodipodi="http://sodipodi.sourceforge.net/DTD/sodipodi-0.dtd"
   xmlns="http://www.w3.org/2000/svg"
   xmlns:svg="http://www.w3.org/2000/svg">
  <defs
     id="defs1" />
  <sodipodi:namedview
     id="namedview1"
     pagecolor="#ffffff"
     bordercolor="#000000"
     borderopacity="0.25"
     inkscape:showpageshadow="2"
     inkscape:pageopacity="0.0"
     inkscape:pagecheckerboard="0"
     inkscape:deskcolor="#d1d1d1"
     inkscape:zoom="0.96679688"
     inkscape:cx="223.93535"
     inkscape:cy="255.48283"
     inkscape:window-width="933"
     inkscape:window-height="720"
     inkscape:window-x="338"
     inkscape:window-y="12"
     inkscape:window-maximized="0"
     inkscape:current-layer="svg1" />
  <!--! Font Awesome Pro 6.1.1 by @fontawesome - https://fontawesome.com License - https://fontawesome.com/license (Commercial License) Copyright 2022 Fonticons, Inc. -->
  <path
     d="M384 32C419.3 32 448 60.65 448 96V416C448 451.3 419.3 480 384 480H64C28.65 480 0 451.3 0 416V96C0 60.65 28.65 32 64 32H384zM143 208.1L190.1 255.1L143 303C133.7 312.4 133.7 327.6 143 336.1C152.4 346.3 167.6 346.3 176.1 336.1L223.1 289.9L271 336.1C280.4 346.3 295.6 346.3 304.1 336.1C314.3 327.6 314.3 312.4 304.1 303L257.9 255.1L304.1 208.1C314.3 199.6 314.3 184.4 304.1 175C295.6 165.7 280.4 165.7 271 175L223.1 222.1L176.1 175C167.6 165.7 152.4 165.7 143 175C133.7 184.4 133.7 199.6 143 208.1V208.1z"
     id="path1" />
  <path
     style="fill:#ff2a2a;stroke-width:1.03434"
     d="M 53.785859,478.70361 C 43.951335,477.05734 29.943571,470.2877 22.00856,463.34635 15.196759,457.38756 7.1150854,445.33972 4.2437284,436.86326 3.0184858,433.24624 1.5397227,425.86505 0.95758812,420.46061 0.26796746,414.05828 0.00765528,354.04932 0.21052468,248.24242 L 0.5218876,85.850505 2.938282,78.610101 C 8.772036,61.130036 19.737084,47.856224 34.650505,40.220657 c 14.9988,-7.679279 0.137678,-7.121667 189.802025,-7.121667 163.20714,0 171.44892,0.08832 176.87272,1.895381 22.29946,7.429566 38.01741,23.516924 44.13008,45.167245 1.80623,6.397455 1.89821,14.917809 1.89821,175.838384 0,160.4688 -0.0963,169.45466 -1.884,175.75568 -5.27839,18.60475 -17.60653,33.31528 -34.8175,41.54585 -13.32333,6.37145 -4.54866,6.09224 -187.23386,5.95783 -91.87555,-0.0676 -168.210099,-0.31768 -169.632321,-0.55575 z M 169.41495,341.95117 c 2.11067,-1.08242 5.00121,-3.22481 6.42343,-4.76087 1.42223,-1.53606 12.70356,-12.56893 25.06964,-24.51748 l 22.48379,-21.72464 24.87526,24.15824 c 13.6814,13.28702 26.79326,25.2055 29.13749,26.4855 5.35717,2.92513 14.04814,3.09206 20.00922,0.38429 5.53985,-2.51643 12.29418,-10.33833 13.90962,-16.10813 1.48463,-5.30259 0.75713,-11.88839 -1.85364,-16.78019 -0.96392,-1.8061 -12.60337,-14.51921 -25.86544,-28.25134 -13.26207,-13.73214 -23.96753,-25.36355 -23.7899,-25.84759 0.17763,-0.48404 11.57634,-12.49719 25.33048,-26.69588 21.38508,-22.07626 25.18372,-26.47008 26.22379,-30.33262 3.08481,-11.45609 -3.70792,-24.49739 -15.03388,-28.86345 -5.17272,-1.99403 -14.11787,-1.50004 -19.22781,1.06185 -2.89719,1.45251 -13.51065,11.18653 -29.13352,26.71951 L 223.39746,221.31296 198.325,196.3495 c -13.78987,-13.72991 -26.61834,-25.73624 -28.50774,-26.68073 -4.90137,-2.45015 -15.46612,-2.28266 -20.52771,0.32544 -11.043,5.69016 -16.03735,17.41628 -12.57054,29.51407 1.0089,3.52067 5.65948,8.73657 26.87517,30.14215 l 25.65514,25.88477 -23.84011,23.76372 c -13.11206,13.07003 -25.00453,25.71994 -26.42769,28.11089 -3.09203,5.19467 -4.24768,13.99023 -2.52426,19.21219 4.50894,13.66225 21.13182,21.39382 32.95769,15.32917 z"
     id="path2" />
</svg>
