<?xml version="1.0" encoding="UTF-8" standalone="no"?>
<svg
   viewBox="0 0 512 512"
   version="1.1"
   id="svg1"
   sodipodi:docname="tags-white.svg"
   inkscape:version="1.4.3 (0d15f75, 2025-12-25)"
   xmlns:inkscape="http://www.inkscape.org/namespaces/inkscape"
   xmlns:sodipodi="http://sodipodi.sourceforge.net/DTD/sodipodi-0.dtd"
   xmlns="http://www.w3.org/2000/svg"
   xmlns:svg="http://www.w3.org/2000/svg">
  <defs
     id="defs1" />
  <sodipodi:namedview
     id="namedview1"
     pagecolor="#ffffff"
     bordercolor="#000000"
     borderopacity="0.25"
     inkscape:showpageshadow="2"
     inkscape:pageopacity="0.0"
     inkscape:pagecheckerboard="0"
     inkscape:deskcolor="#d1d1d1"
     inkscape:zoom="0.96679688"
     inkscape:cx="256"
     inkscape:cy="256"
     inkscape:window-width="1366"
     inkscape:window-height="697"
     inkscape:window-x="-8"
     inkscape:window-y="-8"
     inkscape:window-maximized="1"
     inkscape:current-layer="svg1" />
  <!--! Font Awesome Pro 6.1.1 by @fontawesome - https://fontawesome.com License - https://fontawesome.com/license (Commercial License) Copyright 2022 Fonticons, Inc. -->
  <path
     d="M472.8 168.4C525.1 221.4 525.1 306.6 472.8 359.6L360.8 472.9C351.5 482.3 336.3 482.4 326.9 473.1C317.4 463.8 317.4 448.6 326.7 439.1L438.6 325.9C472.5 291.6 472.5 236.4 438.6 202.1L310.9 72.87C301.5 63.44 301.6 48.25 311.1 38.93C320.5 29.61 335.7 29.7 344.1 39.13L472.8 168.4zM.0003 229.5V80C.0003 53.49 21.49 32 48 32H197.5C214.5 32 230.7 38.74 242.7 50.75L410.7 218.7C435.7 243.7 435.7 284.3 410.7 309.3L277.3 442.7C252.3 467.7 211.7 467.7 186.7 442.7L18.75 274.7C6.743 262.7 0 246.5 0 229.5L.0003 229.5zM112 112C94.33 112 80 126.3 80 144C80 161.7 94.33 176 112 176C129.7 176 144 161.7 144 144C144 126.3 129.7 112 112 112z"
     id="path1" />
  <path
     style="fill:#ffffff;stroke-width:1.03434"
     d="m 216.55225,458.75051 c -9.41149,-2.46735 -16.85693,-6.23506 -24.68154,-12.4899 C 181.27714,437.79232 15.185402,270.50207 11.18864,264.27475 5.410869,255.27244 2.2055136,245.96694 0.97901858,234.63509 0.26666522,228.0535 -0.00133017,197.56721 0.22120148,148.42828 0.55759686,74.146237 0.61576626,72.255939 2.7595406,65.94132 8.4239443,49.256469 21.956351,37.110373 38.770052,33.619862 c 3.543535,-0.735635 32.573223,-1.002671 87.986418,-0.809363 82.39314,0.287427 82.72287,0.296971 89.42131,2.588379 15.55921,5.322508 14.19188,4.086558 108.41513,97.997592 65.20267,64.98661 89.5695,89.92076 93.31609,95.48872 7.23309,10.74938 10.53123,21.58586 10.61362,34.87239 0.0738,11.89588 -1.62749,18.90086 -7.28493,29.99596 -3.38254,6.63367 -9.94039,13.48876 -78.25874,81.80592 -72.22004,72.21877 -74.81518,74.68554 -82.45794,78.37937 -14.17027,6.84863 -29.71163,8.54939 -43.96876,4.81168 z M 125.97792,173.37909 c 6.71624,-3.45421 12.24949,-8.98096 15.36319,-15.34513 2.27235,-4.64452 2.81318,-7.21976 2.86692,-13.65118 0.058,-6.93987 -0.35542,-8.78326 -3.32043,-14.80606 -1.86267,-3.78361 -4.88438,-8.14607 -6.71492,-9.69434 -10.07249,-8.51938 -25.05277,-10.68057 -36.206647,-5.22348 -13.876802,6.78928 -21.020775,22.34365 -17.329435,37.73089 2.321954,9.67899 11.37261,19.37354 21.032272,22.52857 6.4115,2.09412 18.76542,1.31185 24.30905,-1.53927 z"
     id="path2" />
  <path
     style="fill:#ffffff;stroke-width:1.03434"
     d="m 335.77349,477.95457 c -12.37944,-4.58544 -18.79581,-20.389 -12.93911,-31.8691 1.37178,-2.6889 24.17451,-26.56043 61.12954,-63.99477 32.4179,-32.83836 60.82741,-62.19173 63.13228,-65.22972 2.30486,-3.03799 6.25761,-9.85705 8.7839,-15.15348 13.86294,-29.06398 10.53984,-64.20683 -8.51669,-90.06675 -2.6773,-3.63314 -34.7242,-36.81081 -71.21532,-73.72817 -36.49112,-36.91735 -67.35284,-68.788255 -68.5816,-70.824229 -3.10812,-5.149942 -3.82853,-11.263637 -2.03105,-17.236232 2.076,-6.898013 5.86142,-11.427753 12.18216,-14.57751 6.6376,-3.307657 13.03396,-3.493428 19.10425,-0.55485 6.12338,2.964276 140.2122,137.997701 148.49104,149.537101 12.04608,16.79034 20.6205,36.98779 24.08999,56.74516 3.16687,18.03407 1.8714,42.0772 -3.26027,60.50909 -4.04409,14.52545 -14.19462,34.12811 -24.04595,46.43742 -9.19971,11.49509 -123.87525,126.93471 -128.1003,128.95383 -5.0908,2.43284 -13.22717,2.90265 -18.22287,1.05221 z"
     id="path3" />
</svg>
